<svg xmlns="http://www.w3.org/2000/svg" width="16.25" height="27.813" viewBox="0 0 16.25 27.813">
  <defs>
    <style>
      .cls-1 {
        fill: #fffffe;
        fill-rule: evenodd;
      }
    </style>
  </defs>
  <g id="Group_108" data-name="Group 108" transform="translate(-1726.875 -940.938)">
    <path id="Fill-1" class="cls-1" d="M34.313,28a.938.938,0,0,0-.937.938v2.344a6.25,6.25,0,0,1-12.5,0V28.938a.938.938,0,0,0-1.875,0v2.344a8.134,8.134,0,0,0,7.188,8.066v3.028H24a.938.938,0,0,0,0,1.875h6.25a.938.938,0,0,0,0-1.875H28.063V39.347a8.134,8.134,0,0,0,7.188-8.066V28.938A.937.937,0,0,0,34.313,28" transform="translate(1707.875 924.5)"/>
    <path id="Fill-2" class="cls-1" d="M29.75,28.25A3.749,3.749,0,0,0,33.5,24.5V13.25a3.75,3.75,0,0,0-7.5,0V24.5a3.749,3.749,0,0,0,3.75,3.75" transform="translate(1705.25 931.438)"/>
  </g>
</svg>
