<svg xmlns="http://www.w3.org/2000/svg" width="13.333" height="16.666" viewBox="0 0 13.333 16.666">
  <defs>
    <style>
      .cls-1 {
        fill: #2a8bf2;
        fill-rule: evenodd;
      }
    </style>
  </defs>
  <path id="Path_24" data-name="Path 24" class="cls-1" d="M413,691.667h-2.5a.833.833,0,0,1,0-1.667H413a.833.833,0,0,1,0,1.667Zm-3.333,2.5a.834.834,0,0,1,.833-.834h5a.833.833,0,0,1,0,1.667h-5A.833.833,0,0,1,409.667,694.167Zm7.87,2.5h-9.074a.442.442,0,0,1-.463-.417v-12.5a.442.442,0,0,1,.463-.417H413v2.625a2.322,2.322,0,0,0,2.262,2.375H418v7.917A.442.442,0,0,1,417.537,696.667Zm-2.87-12.519,2.285,2.519h-1.69a.66.66,0,0,1-.6-.709Zm4.783,2.792-4.536-5a.835.835,0,0,0-.618-.273h-5.833a2.109,2.109,0,0,0-2.129,2.083v12.5a2.109,2.109,0,0,0,2.129,2.083h9.074a2.11,2.11,0,0,0,2.13-2.083V687.5A.834.834,0,0,0,419.45,686.94Z" transform="translate(-406.334 -681.667)"/>
</svg>
