<svg xmlns="http://www.w3.org/2000/svg" width="18" height="18" viewBox="0 0 18 18">
  <path id="Path_58" data-name="Path 58" d="M1097,842.256a.742.742,0,0,1-.74.744H1095v-2h2Zm-14,0V841h2v2h-1.26A.742.742,0,0,1,1083,842.256Zm.74-13.256H1085v2h-2v-1.256A.742.742,0,0,1,1083.74,829Zm13.26.744V831h-2v-2h1.26A.742.742,0,0,1,1097,829.744ZM1095,839h2v-2h-2Zm0-4h2v-2h-2Zm-8,8h6V829h-6Zm-4-4h2v-2h-2Zm0-4h2v-2h-2Zm13.26-8h-12.52a2.746,2.746,0,0,0-2.74,2.744v12.512a2.746,2.746,0,0,0,2.74,2.744h12.52a2.746,2.746,0,0,0,2.74-2.744V829.744A2.746,2.746,0,0,0,1096.26,827Z" transform="translate(-1081 -827)" fill="#fff" fill-rule="evenodd"/>
</svg>
