<svg xmlns="http://www.w3.org/2000/svg" width="8.166" height="11.666" viewBox="0 0 8.166 11.666">
  <defs>
    <style>
      .cls-1 {
        fill: #707c97;
        fill-rule: evenodd;
      }
    </style>
  </defs>
  <path id="Path_29" data-name="Path 29" class="cls-1" d="M397,639.333a1.169,1.169,0,0,0-1.167,1.167v2.917a1.167,1.167,0,0,0,2.334,0V640.5A1.169,1.169,0,0,0,397,639.333Zm2.333,4.084a2.333,2.333,0,0,1-4.666,0V640.5a2.333,2.333,0,0,1,4.666,0Zm1.167-.584a.583.583,0,0,1,.583.584,4.085,4.085,0,0,1-3.5,4.036v1.214h1.228a.522.522,0,0,1,.522.522v.122a.522.522,0,0,1-.522.522h-3.622a.522.522,0,0,1-.522-.522v-.122a.522.522,0,0,1,.522-.522h1.228v-1.214a4.085,4.085,0,0,1-3.5-4.036.583.583,0,1,1,1.166,0,2.917,2.917,0,0,0,5.834,0A.583.583,0,0,1,400.5,642.833Z" transform="translate(-392.917 -638.167)"/>
</svg>
