<svg xmlns="http://www.w3.org/2000/svg" width="18" height="18" viewBox="0 0 18 18">
  <path id="Path_57" data-name="Path 57" d="M1086,884a1.5,1.5,0,1,0-1.5-1.5A1.5,1.5,0,0,0,1086,884Zm10,9h-11.44l7.01-5.845a.771.771,0,0,1,.93,0l4.5,3.84V892A1,1,0,0,1,1096,893Zm-12-14h12a1,1,0,0,1,1,1v8.364l-3.2-2.732a2.776,2.776,0,0,0-3.52-.006L1083,891.7V880A1,1,0,0,1,1084,879Zm12-2h-12a3.006,3.006,0,0,0-3,3v12a3.006,3.006,0,0,0,3,3h12a3.006,3.006,0,0,0,3-3V880A3.006,3.006,0,0,0,1096,877Z" transform="translate(-1081 -877)" fill="#fff" fill-rule="evenodd"/>
</svg>
