<svg xmlns="http://www.w3.org/2000/svg" width="16" height="20" viewBox="0 0 16 20">
  <path id="Path_56" data-name="Path 56" d="M1095.44,944h-10.88a.532.532,0,0,1-.56-.5v-15a.532.532,0,0,1,.56-.5H1089v4.15a2.788,2.788,0,0,0,2.71,2.85H1096v8.5A.532.532,0,0,1,1095.44,944Zm.21-11h-3.94a.791.791,0,0,1-.71-.85V928h.11Zm2.09-.672-5.44-6a1,1,0,0,0-.74-.328h-7a2.535,2.535,0,0,0-2.56,2.5v15a2.535,2.535,0,0,0,2.56,2.5h10.88a2.535,2.535,0,0,0,2.56-2.5V933A.985.985,0,0,0,1097.74,932.328Z" transform="translate(-1082 -926)" fill="#fff" fill-rule="evenodd"/>
</svg>
