<svg xmlns="http://www.w3.org/2000/svg" width="15" height="15" viewBox="0 0 15 15">
  <defs>
    <style>
      .cls-1 {
        fill: #f36;
        fill-rule: evenodd;
      }
    </style>
  </defs>
  <path id="Path_26" data-name="Path 26" class="cls-1" d="M539.667,688.333a1.25,1.25,0,1,0-1.25-1.25A1.25,1.25,0,0,0,539.667,688.333Zm8.333,7.5h-9.532l5.837-4.871a.647.647,0,0,1,.778,0l3.75,3.2V695A.833.833,0,0,1,548,695.833Zm-10-11.666h10a.833.833,0,0,1,.833.833v6.97l-2.669-2.277a2.315,2.315,0,0,0-2.933-.005l-6.064,5.06V685A.833.833,0,0,1,538,684.167Zm10-1.667H538a2.5,2.5,0,0,0-2.5,2.5v10a2.5,2.5,0,0,0,2.5,2.5h10a2.5,2.5,0,0,0,2.5-2.5V685A2.5,2.5,0,0,0,548,682.5Z" transform="translate(-535.5 -682.5)"/>
</svg>
